<svg xmlns="http://www.w3.org/2000/svg" width="113.452" height="121.347" viewBox="0 0 113.452 121.347">
  <g id="Group_25363" data-name="Group 25363" transform="translate(1569.001 -171.892)">
    <path id="Path_26573" data-name="Path 26573" d="M-1478.672,223.71c2.759-2.783,5.413-5.5,8.108-8.171,3.35-3.324,7.019-3.182,10.527-.043,6.021,5.389,5.9,9.155.138,14.527-5.958,5.551-11.535,11.507-17.356,17.208a5.31,5.31,0,0,0-1.8,4.216c.09,11.57.049,23.14.044,34.71,0,4.966-2.143,7.078-7.173,7.078q-37.888,0-75.776,0c-4.848,0-7.037-2.165-7.038-6.965q-.007-47.788,0-95.575c0-4.839,2.164-7,6.991-7.011,2.363-.006,4.726.02,7.088-.008,1.607-.019,3.39.541,4.376-1.506.292-.605,1.167-.423,1.815-.448a27.005,27.005,0,0,0,16.312-6.294c5.845-4.745,11.036-4.71,16.927.075a26.642,26.642,0,0,0,16.094,6.2c1.125.044,2.167.13,2.627,1.315.391,1.006,1.2.64,1.854.647,3.177.035,6.355-.009,9.532.022,4.01.04,6.355,2.375,6.365,6.406.026,10.348,0,20.7.022,31.044A4.313,4.313,0,0,0-1478.672,223.71Z"/>
    <path id="Path_26574" data-name="Path 26574" d="M-1478.624,285.017c-.927,1-1.468,1.505-1.916,2.082a31.053,31.053,0,0,1-20.577,12.123c-1.822.277-3.782,1.752-4.975-1.039-.094-.22-.886-.2-1.354-.194q-14.648.025-29.3.074c-4.4-.231-4.4-.231-4.4-4.608q0-3.546,0-7.091c0-3.882.023-3.906,3.916-4.116,11.731.027,23.462.035,35.194.113a3.224,3.224,0,0,0,2.451-1.3c6.451-6.454,12.878-12.933,19.382-19.334a5.072,5.072,0,0,0,1.7-4.011c-.081-11.244-.042-22.489-.042-33.733,0-4.841,0-4.831-4.8-4.272-.6.069-1.162.023-1.071.876.306,2.874-1.467,3.076-3.692,3.073-16.375-.021-32.751.028-49.128.055a2.191,2.191,0,0,1-1.942-2.627c.184-1.352-.544-1.458-1.568-1.376a8.74,8.74,0,0,1-1.952,0c-1.839-.269-2.422.328-2.417,2.308q.113,40.688,0,81.377c-.006,2.11.6,2.463,2.551,2.455,20.12-.077,40.24-.047,60.361-.047,3.784,0,3.784,0,3.579-3.916Zm-52.6-43.354c-1.426-2.875-1.378-2.9.889-5.2q.944-.957,1.9-1.9c2.374-2.344,2.375-2.343,5.409-.962a3.806,3.806,0,0,0,5.408-2.044c1.165-3.367,1.165-3.367,4.813-3.373.978,0,1.96.06,2.932-.011,2.137-.158,3.3.72,3.792,2.873.613,2.664,2.981,3.676,5.461,2.563,3.083-1.385,3.084-1.386,5.4.908.579.573,1.157,1.147,1.729,1.728,1.83,1.864,2.992,2.467,1.072,5.631a3.644,3.644,0,0,0,1.874,5.253c3.542,1.331,3.542,1.331,3.545,5.166,0,.815-.066,1.636.012,2.443.216,2.217-.6,3.489-2.906,3.989a3.644,3.644,0,0,0-2.641,5.244c1.406,3.387,1.406,3.387-1.17,5.972q-.69.692-1.383,1.382c-2.394,2.379-2.394,2.379-5.6,1a3.845,3.845,0,0,0-5.277,1.949c-1.288,3.511-1.288,3.511-4.95,3.517-.9,0-1.8-.069-2.687.013-2.24.207-3.458-.684-3.962-2.959-.557-2.515-2.92-3.537-5.3-2.551-3.308,1.37-3.308,1.37-5.821-1.129-.693-.69-1.35-1.42-2.08-2.068-1.479-1.313-1.886-2.634-.707-4.472a4.025,4.025,0,0,0-.474-5.147,6.07,6.07,0,0,0-4.86-1.043c.026-.025.043-.053.072-.078a52.537,52.537,0,0,0,.005-10.668,5.015,5.015,0,0,0,4.791-1.324A3.676,3.676,0,0,0-1531.221,241.662Z" transform="translate(-12.204 -24.307)" fill="#f1f1f1"/>
    <path id="Path_26575" data-name="Path 26575" d="M-1501.635,191.719c-7.159,0-14.319.019-21.478-.031-.646,0-1.706.636-1.918-.747-.222-1.454.876-1.289,1.694-1.4a32.2,32.2,0,0,0,16.612-7.569,7.707,7.707,0,0,1,10.474.09,31.888,31.888,0,0,0,16.4,7.473c.755.106,1.971-.185,1.774,1.321s-1.367.825-2.075.83C-1487.315,191.74-1494.475,191.719-1501.635,191.719Z" transform="translate(-22.451 -4.124)" fill="#ebb02a"/>
    <path id="Path_26576" data-name="Path 26576" d="M-1501.34,211.963c7.077,0,14.154.045,21.23-.035,1.567-.018,2.051.378,2.058,2,.007,1.651-.535,1.987-2.074,1.981q-21.475-.082-42.949,0c-1.566.006-2.051-.377-2.058-2-.007-1.651.533-2,2.074-1.982C-1515.819,212-1508.579,211.963-1501.34,211.963Z" transform="translate(-22.413 -20.455)" fill="#f3d35a"/>
    <path id="Path_26577" data-name="Path 26577" d="M-1412.033,294.35a25.7,25.7,0,0,1-1.978-2.133c-1.305-1.752-2.29-1.7-3.885-.069-8.179,8.363-16.5,16.586-24.772,24.858-3.956,3.956-3.956,3.956.28,7.705.257.307.539.6.766.923,1.454,2.1,2.626,1.875,4.4.052,8.386-8.593,16.935-17.027,25.426-25.517C-1408.838,297.213-1408.838,297.213-1412.033,294.35Z" transform="translate(-63.047 -60.81)" fill="#875cc8"/>
    <path id="Path_26578" data-name="Path 26578" d="M-1496.1,355.95c-9.519.071-19.038.079-28.556.106h0c-4.412-.231-4.412-.231-4.412,4.082a11.216,11.216,0,0,1-.013,1.707c-.257,1.637.449,2,2.008,1.99,8.955-.072,17.91-.035,26.864-.035,3.771,0,3.771,0,4.428-3.9.3-.829.592-1.663.905-2.488C-1494.407,356.179-1494.905,355.941-1496.1,355.95Z" transform="translate(-20.369 -94.038)" fill="#ebb02a"/>
    <path id="Path_26579" data-name="Path 26579" d="M-1376.172,277.532c.535.455.847.686,1.12.958,1.726,1.719,3.4,3.5,5.177,5.158,1.551,1.45-.181,1.891-.758,2.6-.6.745-1.214,1.856-2.435.478-1.451-1.638-3.112-3.089-4.619-4.681-.44-.465-1.5-.829-.946-1.687A25.681,25.681,0,0,1-1376.172,277.532Z" transform="translate(-97.182 -53.973)" fill="#ebb02a"/>
    <g id="Group_25362" data-name="Group 25362" transform="translate(-1565.088 187.57)">
      <path id="Path_26580" data-name="Path 26580" d="M-1418.753,207.9c1.217-.071,2.441-.016,3.662-.014,3.555,0,3.792.231,3.793,3.7,0,11.964,0,23.928,0,36.672,1.626-2.158,3.93-2.845,3.924-5.417q-.04-18.071,0-36.142c0-1.993-.9-2.778-2.834-2.738q-4.271.088-8.546,0c-1.446-.033-2.4-.012-2.4,1.974S-1420.2,207.985-1418.753,207.9Z" transform="translate(1489.55 -203.948)" fill="#686868"/>
      <path id="Path_26581" data-name="Path 26581" d="M-1478.9,299.8h0V269.347c-1.556,2.059-3.868,2.747-3.852,5.317.051,8.38.057,16.76.081,25.14h0c-.332,1.566-1.375,2-2.872,2q-34.326-.032-68.651,0c-2.085,0-2.909-.855-2.907-2.927q.042-44.1,0-88.2c0-1.5.435-2.54,2-2.869,2.11.022,4.224-.019,6.329.09,1.5.077,1.513-.8,1.47-1.854-.042-1.023.28-2.189-1.47-2.1-2.105.111-4.219.067-6.329.089h0c-.325-.022-.649-.059-.974-.065-4.927-.087-4.927-.086-4.927,4.773q0,46.53,0,93.061c0,3.675.212,3.888,3.863,3.889h72.544C-1478.635,305.7-1478.635,305.7-1478.9,299.8Z" transform="translate(1561 -203.95)" fill="#717171"/>
    </g>
    <path id="Path_26582" data-name="Path 26582" d="M-1454.953,367.026c.534-2.058,1.012-3.755,1.408-5.471.329-1.431.919-1.291,1.725-.383a4.192,4.192,0,0,1,.33.354c.9,1.283,3.191,2.11,2.773,3.516-.26.87-2.782,1.077-4.3,1.554C-1453.534,366.759-1454.08,366.836-1454.953,367.026Z" transform="translate(-58.269 -96.355)" fill="#c8cccf"/>
    <path id="Path_26583" data-name="Path 26583" d="M-1357.269,267.58c-.274-.382-.524-.785-.826-1.144-2.349-2.8-3.887-3.058-6.04-1.049-2.64,2.465-2.643,2.468.4,5.524.506.508,1.054.974,1.582,1.459,2.45,2.726,2.45,2.726,4.93.142.168-.176.356-.335.507-.523C-1355.383,270.332-1355.244,268.82-1357.269,267.58Z" transform="translate(-103.682 -47.099)" fill="#ad3bb4"/>
    <path id="Path_26584" data-name="Path 26584" d="M-1528.613,266.8a23.586,23.586,0,0,1,0-10.739c1-.32,1.993-.667,3-.954a3.146,3.146,0,0,0,1.985-4.647c-1.8-3.254-1.8-3.254.864-5.919l1.383-1.383c3.14-3.138,3.14-3.138,7.2-1.354a3.385,3.385,0,0,0,4.133-2.147C-1509,236-1509,236-1505.09,236h2.689c3.937,0,3.937,0,5.092,3.785a3.224,3.224,0,0,0,4.423,1.816c3.5-1.838,3.5-1.838,6.294.957l1.9,1.9c2.708,2.711,2.709,2.711.878,6.116a3.134,3.134,0,0,0,1.953,4.506c3.605,1.009,3.605,1.009,3.605,4.757a30.6,30.6,0,0,0,.029,3.908c.322,2.484-.852,3.512-3.14,3.98-2.792.572-3.671,2.75-2.058,5.168,1.26,1.889,1.29,3.334-.55,4.837a30.064,30.064,0,0,0-3.632,3.622c-1.3,1.5-2.557,1.628-4.249.57-3.028-1.893-4.9-1.135-5.711,2.342-.451,1.941-1.351,2.777-3.369,2.627a41.689,41.689,0,0,0-5.62,0c-1.892.117-2.766-.654-3.21-2.5-.881-3.651-2.641-4.364-5.85-2.416-1.6.975-2.795.883-4.055-.527-1.356-1.517-2.835-2.928-4.313-4.328a2.473,2.473,0,0,1-.406-3.465c2.123-3.76,1.5-5.143-2.631-6.3C-1527.56,267.207-1528.082,266.989-1528.613,266.8Z" transform="translate(-20.319 -32.754)"/>
    <path id="Path_26585" data-name="Path 26585" d="M-1482.87,252.107c-.085.24-.1.431-.2.539-2.72,2.877-.292,5.434.5,8.088.422,1.418,1.628,1.726,2.867,1.876,1.85.224,1.731,1.513,1.717,2.86-.014,1.323.127,2.468-1.686,2.911-3.471.847-5.7,6.066-3.836,9.031.99,1.572.281,2.33-.733,3.279-.952.89-1.626,1.876-3.266.857-2.991-1.86-8.279.275-9.118,3.679-.473,1.919-1.664,1.727-3.062,1.809-1.513.089-2.329-.273-2.744-1.9-.831-3.252-6.182-5.474-8.977-3.675-1.688,1.087-2.428.135-3.467-.826-1.078-1-1.547-1.808-.609-3.294,1.756-2.782-.47-8.171-3.732-8.954-1.9-.456-1.812-1.587-1.863-3.02-.053-1.464.179-2.353,1.844-2.784,3.4-.88,5.48-6.108,3.627-9.155-.9-1.486-.206-2.21.733-3.077.921-.85,1.548-2,3.237-.993,3.225,1.93,8.307-.124,9.251-3.758.48-1.844,1.635-1.591,2.919-1.663,1.415-.08,2.389.064,2.831,1.775.886,3.424,6.044,5.448,9.145,3.762.684-.371,1.386-1.081,2.17-.229C-1484.462,250.182-1483.254,250.838-1482.87,252.107Z" transform="translate(-24.481 -36.802)" fill="#3979c3"/>
    <path id="Path_26586" data-name="Path 26586" d="M-1477.524,275.889a11.831,11.831,0,0,1-11.763,11.586A11.83,11.83,0,0,1-1501,275.586,11.829,11.829,0,0,1-1489.232,264,11.811,11.811,0,0,1-1477.524,275.889Z" transform="translate(-34.745 -47.062)"/>
    <path id="Path_26587" data-name="Path 26587" d="M-1485.2,272a7.856,7.856,0,0,1,7.845,7.678,7.861,7.861,0,0,1-7.8,7.969,7.859,7.859,0,0,1-7.846-7.678A7.867,7.867,0,0,1-1485.2,272Z" transform="translate(-38.831 -51.149)" fill="#fefefe"/>
  </g>
</svg>
