<svg xmlns="http://www.w3.org/2000/svg" width="1101" height="623" viewBox="0 0 1101 623">
<g id="Group_26787" data-name="Group 26787" transform="translate(-752 -257)">
<g id="Group_26638" data-name="Group 26638" transform="translate(752 257)">
<g id="Group_26633" data-name="Group 26633" transform="translate(0 0)">
<g id="Rectangle_3353" data-name="Rectangle 3353" fill="none" stroke="#dbdbe8" stroke-width="1">
<rect width="278" height="623" rx="10" stroke="none"/>
<rect x="0.5" y="0.5" width="277" height="622" rx="9.5" fill="none"/>
</g>
<g id="Group_26624" data-name="Group 26624" transform="translate(0 86.001)">
<g id="Rectangle_3356" data-name="Rectangle 3356" fill="#3979c3" stroke="#ebebed" stroke-width="1">
<rect width="278" height="85" stroke="none"/>
<rect x="0.5" y="0.5" width="277" height="84" fill="none"/>
</g>
<g id="Group_26623" data-name="Group 26623" transform="translate(22 8.999)">
<circle id="Ellipse_728" data-name="Ellipse 728" cx="34" cy="34" r="34" fill="#dddee2"/>
<g id="Group_26621" data-name="Group 26621" transform="translate(82 22.999)">
<rect id="Rectangle_3354" data-name="Rectangle 3354" width="115" height="12" rx="6" fill="#fff"/>
<rect id="Rectangle_3355" data-name="Rectangle 3355" width="115" height="4" rx="2" transform="translate(0 19)" fill="#fff"/>
</g>
</g>
</g>
<g id="Group_26625" data-name="Group 26625" transform="translate(0 0.999)">
<rect id="Rectangle_3356-2" data-name="Rectangle 3356" width="278" height="86" fill="none"/>
<g id="Group_26623-2" data-name="Group 26623" transform="translate(22.065 9.185)">
<path id="Path_26692" data-name="Path 26692" d="M33.946,0A33.946,33.946,0,1,1,0,33.946,33.946,33.946,0,0,1,33.946,0Z" fill="#dddee2"/>
<g id="Group_26621-2" data-name="Group 26621" transform="translate(81.935 22.816)">
<rect id="Rectangle_3354-2" data-name="Rectangle 3354" width="115" height="12" rx="6" fill="#dddee2"/>
<rect id="Rectangle_3355-2" data-name="Rectangle 3355" width="115" height="4" rx="2" transform="translate(0 19)" fill="#dddee2"/>
</g>
</g>
</g>
<g id="Group_26626" data-name="Group 26626" transform="translate(0 170.682)">
<rect id="Rectangle_3356-3" data-name="Rectangle 3356" width="278" height="86" transform="translate(0 0.318)" fill="none"/>
<g id="Group_26623-3" data-name="Group 26623" transform="translate(22.065 8.497)">
<path id="Path_26692-2" data-name="Path 26692" d="M33.946,0A33.946,33.946,0,1,1,0,33.946,33.946,33.946,0,0,1,33.946,0Z" fill="#dddee2"/>
<g id="Group_26621-3" data-name="Group 26621" transform="translate(81.935 24.503)">
<rect id="Rectangle_3354-3" data-name="Rectangle 3354" width="115" height="12" rx="6" transform="translate(0 0.318)" fill="#dddee2"/>
<rect id="Rectangle_3355-3" data-name="Rectangle 3355" width="115" height="5" rx="2.5" transform="translate(0 18.318)" fill="#dddee2"/>
</g>
</g>
</g>
<g id="Group_26627" data-name="Group 26627" transform="translate(0 256.523)">
<rect id="Rectangle_3356-4" data-name="Rectangle 3356" width="278" height="86" transform="translate(0 0.477)" fill="none"/>
<g id="Group_26623-4" data-name="Group 26623" transform="translate(22.065 7.573)">
<path id="Path_26692-3" data-name="Path 26692" d="M33.946,0A33.946,33.946,0,1,1,0,33.946,33.946,33.946,0,0,1,33.946,0Z" fill="#dddee2"/>
<g id="Group_26621-4" data-name="Group 26621" transform="translate(81.935 24.427)">
<rect id="Rectangle_3354-4" data-name="Rectangle 3354" width="115" height="12" rx="6" transform="translate(0 0.477)" fill="#dddee2"/>
<rect id="Rectangle_3355-4" data-name="Rectangle 3355" width="115" height="4" rx="2" transform="translate(0 19.477)" fill="#dddee2"/>
</g>
</g>
</g>
<g id="Group_26630" data-name="Group 26630" transform="translate(0 429.202)">
<rect id="Rectangle_3356-5" data-name="Rectangle 3356" width="278" height="85" transform="translate(0 -0.201)" fill="none"/>
<g id="Group_26623-5" data-name="Group 26623" transform="translate(22.065 9.8)">
<path id="Path_26692-4" data-name="Path 26692" d="M33.946,0A33.946,33.946,0,1,1,0,33.946,33.946,33.946,0,0,1,33.946,0Z" fill="#dddee2"/>
<g id="Group_26621-5" data-name="Group 26621" transform="translate(81.935 22.201)">
<rect id="Rectangle_3354-5" data-name="Rectangle 3354" width="115" height="12" rx="6" transform="translate(0 -0.203)" fill="#dddee2"/>
<rect id="Rectangle_3355-5" data-name="Rectangle 3355" width="115" height="4" rx="2" transform="translate(0 18.797)" fill="#dddee2"/>
</g>
</g>
</g>
<g id="Group_26628" data-name="Group 26628" transform="translate(0 343.361)">
<rect id="Rectangle_3356-6" data-name="Rectangle 3356" width="278" height="86" transform="translate(0 -0.361)" fill="none"/>
<g id="Group_26623-6" data-name="Group 26623" transform="translate(22.065 10.716)">
<path id="Path_26692-5" data-name="Path 26692" d="M33.946,0A33.946,33.946,0,1,1,0,33.946,33.946,33.946,0,0,1,33.946,0Z" fill="#dddee2"/>
<g id="Group_26621-6" data-name="Group 26621" transform="translate(81.935 21.283)">
<rect id="Rectangle_3354-6" data-name="Rectangle 3354" width="115" height="12" rx="6" transform="translate(0 -0.359)" fill="#dddee2"/>
<rect id="Rectangle_3355-6" data-name="Rectangle 3355" width="115" height="4" rx="2" transform="translate(0 18.641)" fill="#dddee2"/>
</g>
</g>
</g>
<g id="Group_26629" data-name="Group 26629" transform="translate(0 519)">
<rect id="Rectangle_3356-7" data-name="Rectangle 3356" width="278" height="86" fill="none"/>
<g id="Group_26623-7" data-name="Group 26623" transform="translate(22.065 9.8)">
<path id="Path_26692-6" data-name="Path 26692" d="M33.946,0A33.946,33.946,0,1,1,0,33.946,33.946,33.946,0,0,1,33.946,0Z" fill="#dddee2"/>
<g id="Group_26621-7" data-name="Group 26621" transform="translate(81.935 23.201)">
<rect id="Rectangle_3354-7" data-name="Rectangle 3354" width="115" height="12" rx="6" fill="#dddee2"/>
<rect id="Rectangle_3355-7" data-name="Rectangle 3355" width="115" height="5" rx="2.5" transform="translate(0 18)" fill="#dddee2"/>
</g>
</g>
</g>
</g>
</g>
<g id="Group_26637" data-name="Group 26637" transform="translate(1159 258)">
<g id="Rectangle_3357" data-name="Rectangle 3357" fill="none" stroke="#dbdbe8" stroke-width="1">
<rect width="694" height="552" rx="10" stroke="none"/>
<rect x="0.5" y="0.5" width="693" height="551" rx="9.5" fill="none"/>
</g>
<g id="Rectangle_3372" data-name="Rectangle 3372" transform="translate(25 408)" fill="none" stroke="#dbdbe8" stroke-width="1">
<rect width="615" height="95" rx="10" stroke="none"/>
<rect x="0.5" y="0.5" width="614" height="94" rx="9.5" fill="none"/>
</g>
<path id="Rectangle_3358" data-name="Rectangle 3358" d="M10,0H684a10,10,0,0,1,10,10V63a0,0,0,0,1,0,0H0a0,0,0,0,1,0,0V10A10,10,0,0,1,10,0Z" fill="#3979c3"/>
<rect id="Rectangle_3360" data-name="Rectangle 3360" width="694" height="46" transform="translate(0 62)" fill="#ebebed"/>
<rect id="Rectangle_3359" data-name="Rectangle 3359" width="259" height="17" rx="8.5" transform="translate(40 23)" fill="#fff"/>
<rect id="Rectangle_3361" data-name="Rectangle 3361" width="74" height="16" rx="5" transform="translate(40 77)" fill="#c8cccf"/>
<rect id="Rectangle_3362" data-name="Rectangle 3362" width="74" height="16" rx="5" transform="translate(129 77)" fill="#c8cccf"/>
<g id="Rectangle_3371" data-name="Rectangle 3371" transform="translate(452 133)" fill="none" stroke="#dbdbe8" stroke-width="1">
<rect width="188" height="249" rx="10" stroke="none"/>
<rect x="0.5" y="0.5" width="187" height="248" rx="9.5" fill="none"/>
</g>
<rect id="Rectangle_3365" data-name="Rectangle 3365" width="111" height="25" rx="5" transform="translate(470 158)" fill="#c8cccf"/>
<rect id="Rectangle_3366" data-name="Rectangle 3366" width="151" height="10" rx="5" transform="translate(470 202)" fill="#c8cccf"/>
<g id="Group_26636" data-name="Group 26636" transform="translate(51 432)">
<rect id="Rectangle_3373" data-name="Rectangle 3373" width="97" height="25" rx="5" fill="#c8cccf"/>
<rect id="Rectangle_3374" data-name="Rectangle 3374" width="151" height="10" rx="5" transform="translate(0 36)" fill="#c8cccf"/>
<rect id="Rectangle_3375" data-name="Rectangle 3375" width="151" height="10" rx="5" transform="translate(206 36)" fill="#c8cccf"/>
<rect id="Rectangle_3378" data-name="Rectangle 3378" width="151" height="10" rx="5" transform="translate(412 36)" fill="#c8cccf"/>
<rect id="Rectangle_3376" data-name="Rectangle 3376" width="94" height="10" rx="5" transform="translate(206 15)" fill="#c8cccf"/>
<rect id="Rectangle_3377" data-name="Rectangle 3377" width="94" height="10" rx="5" transform="translate(412 15)" fill="#c8cccf"/>
</g>
<rect id="Rectangle_3369" data-name="Rectangle 3369" width="151" height="10" rx="5" transform="translate(470 246)" fill="#c8cccf"/>
<rect id="Rectangle_3370" data-name="Rectangle 3370" width="151" height="10" rx="5" transform="translate(470 292)" fill="#c8cccf"/>
<rect id="Rectangle_3367" data-name="Rectangle 3367" width="122" height="10" rx="5" transform="translate(470 224)" fill="#c8cccf"/>
<rect id="Rectangle_3368" data-name="Rectangle 3368" width="122" height="10" rx="5" transform="translate(470 270)" fill="#c8cccf"/>
<rect id="Rectangle_3363" data-name="Rectangle 3363" width="74" height="16" rx="5" transform="translate(218 77)" fill="#c8cccf"/>
<g id="Group_26635" data-name="Group 26635" transform="translate(25 133)">
<g id="Rectangle_3364" data-name="Rectangle 3364" fill="none" stroke="#dbdbe8" stroke-width="1">
<rect width="401" height="249" rx="10" stroke="none"/>
<rect x="0.5" y="0.5" width="400" height="248" rx="9.5" fill="none"/>
</g>
<g id="Group_26631" data-name="Group 26631" transform="translate(165 25)">
<rect id="Rectangle_3365-2" data-name="Rectangle 3365" width="128" height="25" rx="5" fill="#c8cccf"/>
<rect id="Rectangle_3366-2" data-name="Rectangle 3366" width="193" height="10" rx="5" transform="translate(0 44)" fill="#c8cccf"/>
<rect id="Rectangle_3369-2" data-name="Rectangle 3369" width="193" height="10" rx="5" transform="translate(0 88)" fill="#c8cccf"/>
<rect id="Rectangle_3370-2" data-name="Rectangle 3370" width="193" height="10" rx="5" transform="translate(0 134)" fill="#c8cccf"/>
<rect id="Rectangle_3367-2" data-name="Rectangle 3367" width="165" height="10" rx="5" transform="translate(0 66)" fill="#c8cccf"/>
<rect id="Rectangle_3368-2" data-name="Rectangle 3368" width="165" height="10" rx="5" transform="translate(0 112)" fill="#c8cccf"/>
</g>
<circle id="Ellipse_729" data-name="Ellipse 729" cx="60" cy="60" r="60" transform="translate(25 25)" fill="#dddee2"/>
</g>
</g>
</g>
</svg>