<svg id="Stripe__company_-Powered-by-Stripe-Logo.wine" data-name="Stripe_(company)-Powered-by-Stripe-Logo.wine" xmlns="http://www.w3.org/2000/svg" width="145.365" height="40" viewBox="0 0 145.365 40">
  <path id="Path_13534" data-name="Path 13534" d="M5.854,0H139.512a5.853,5.853,0,0,1,5.854,5.854V34.146A5.853,5.853,0,0,1,139.512,40H5.854A5.853,5.853,0,0,1,0,34.146V5.854A5.853,5.853,0,0,1,5.854,0Z" fill="#6772e4" fill-rule="evenodd"/>
  <path id="Path_13535" data-name="Path 13535" d="M69.978,26.2H68.552l1.1-2.728-2.2-5.546h1.507L70.347,21.7l1.392-3.775h1.507ZM64.5,23.814a2.4,2.4,0,0,1-1.461-.54v.4H61.566V15.4h1.472v2.912a2.454,2.454,0,0,1,1.461-.53c1.542,0,2.6,1.243,2.6,3.015S66.042,23.814,64.5,23.814Zm-.31-4.764a1.628,1.628,0,0,0-1.151.518v2.462a1.628,1.628,0,0,0,1.151.518c.828,0,1.4-.713,1.4-1.749S65.018,19.05,64.19,19.05ZM55.6,23.274a2.345,2.345,0,0,1-1.461.54c-1.531,0-2.6-1.243-2.6-3.015s1.069-3.015,2.6-3.015a2.4,2.4,0,0,1,1.461.53V15.4h1.485v8.274H55.6Zm0-3.705a1.584,1.584,0,0,0-1.14-.518c-.84,0-1.415.714-1.415,1.749s.575,1.749,1.415,1.749a1.584,1.584,0,0,0,1.14-.518ZM46.836,21.2a1.645,1.645,0,0,0,1.749,1.473,3.533,3.533,0,0,0,1.714-.541v1.231a4.688,4.688,0,0,1-1.956.449,2.886,2.886,0,0,1-2.957-3.06,2.8,2.8,0,0,1,2.842-2.969,2.594,2.594,0,0,1,2.532,2.877,4.453,4.453,0,0,1-.023.54Zm1.335-2.278a1.346,1.346,0,0,0-1.335,1.323h2.508A1.247,1.247,0,0,0,48.17,18.924Zm-5.213.908v3.844H41.484V17.922h1.473V18.5a1.946,1.946,0,0,1,1.415-.713,1.742,1.742,0,0,1,.484.058v1.312a1.907,1.907,0,0,0-.518-.069A1.815,1.815,0,0,0,42.957,19.833ZM36.386,21.2a1.645,1.645,0,0,0,1.749,1.473,3.536,3.536,0,0,0,1.715-.541v1.231a4.7,4.7,0,0,1-1.957.449,2.886,2.886,0,0,1-2.957-3.06,2.8,2.8,0,0,1,2.842-2.969,2.594,2.594,0,0,1,2.532,2.877,4.646,4.646,0,0,1-.022.54Zm1.335-2.278a1.346,1.346,0,0,0-1.335,1.323H38.9A1.248,1.248,0,0,0,37.72,18.924Zm-6.479,4.752-1.174-3.912-1.162,3.912H27.582L25.6,17.922h1.472l1.163,3.913L29.4,17.922h1.335L31.9,21.836l1.163-3.913h1.472l-1.968,5.754Zm-9,.138A2.876,2.876,0,0,1,19.274,20.8a2.963,2.963,0,1,1,5.926,0A2.867,2.867,0,0,1,22.242,23.814Zm0-4.8c-.863,0-1.461.725-1.461,1.783s.6,1.783,1.461,1.783,1.45-.725,1.45-1.783S23.094,19.016,22.242,19.016Zm-6.467,1.819H14.451v2.842H12.979V15.759h2.8a2.547,2.547,0,1,1,0,5.075Zm-.208-3.878H14.451v2.681h1.116a1.345,1.345,0,1,0,0-2.681Zm118.239,4.6h-7.073c.161,1.694,1.4,2.192,2.81,2.192a7.632,7.632,0,0,0,3.55-.8V25.86a8.109,8.109,0,0,1-4.006.937c-3.519,0-5.985-2.2-5.985-6.562,0-3.68,2.092-6.6,5.53-6.6s5.223,2.922,5.223,6.622c0,.349-.032,1.106-.049,1.3Zm-5.2-4.978c-.9,0-1.907.682-1.907,2.31h3.736C130.436,17.262,129.5,16.578,128.608,16.578ZM117.371,26.8a4.05,4.05,0,0,1-2.556-.914l-.008,4.089-3.613.769,0-16.867h3.182l.187.893a4.046,4.046,0,0,1,2.831-1.134c2.538,0,4.928,2.286,4.928,6.493C122.321,24.717,119.956,26.8,117.371,26.8Zm-.841-9.964a2.18,2.18,0,0,0-1.726.716l.021,5.37a2.16,2.16,0,0,0,1.7.686c1.336,0,2.231-1.455,2.231-3.4,0-1.891-.909-3.372-2.231-3.372Zm-10.441-2.96h3.627V26.538h-3.627Zm0-4.044,3.627-.772V12l-3.627.771Zm-3.747,8.123v8.586H98.73V13.873h3.124l.227,1.068a2.465,2.465,0,0,1,3.016-1.067v3.321A2.567,2.567,0,0,0,102.342,17.952Zm-7.626,4.142c0,2.13,2.28,1.467,2.743,1.282v2.941a5.583,5.583,0,0,1-2.537.479,3.64,3.64,0,0,1-3.753-3.719l.016-11.593,3.528-.749,0,3.138H97.46v3.081H94.715Zm-4.384.617c0,2.6-2.07,4.086-5.075,4.086a10.018,10.018,0,0,1-3.951-.82v-3.45A9.106,9.106,0,0,0,85.26,23.68c.806,0,1.386-.217,1.386-.884,0-1.725-5.494-1.075-5.494-5.076,0-2.558,1.954-4.089,4.885-4.089a9.559,9.559,0,0,1,3.591.661v3.4a8.1,8.1,0,0,0-3.594-.93c-.757,0-1.227.219-1.227.783C84.807,19.175,90.331,18.4,90.331,22.711Z" transform="translate(-0.317 -0.221)" fill="#fff" fill-rule="evenodd"/>
</svg>
