<svg width="33" height="33" viewBox="0 0 33 33" fill="none" xmlns="http://www.w3.org/2000/svg">
<path d="M27.7588 11.7229V26.3104C27.7588 26.5756 27.6534 26.8299 27.4659 27.0175C27.2784 27.205 27.024 27.3104 26.7588 27.3104H6.75879C6.49357 27.3104 6.23922 27.205 6.05168 27.0175C5.86415 26.8299 5.75879 26.5756 5.75879 26.3104V6.31037C5.75879 6.04515 5.86415 5.7908 6.05168 5.60326C6.23922 5.41573 6.49357 5.31037 6.75879 5.31037H21.3463C21.4761 5.30991 21.6048 5.33507 21.7249 5.38441C21.845 5.43374 21.9542 5.50628 22.0463 5.59787L27.4713 11.0229C27.5629 11.1149 27.6354 11.2241 27.6848 11.3442C27.7341 11.4644 27.7592 11.593 27.7588 11.7229Z" stroke="black" stroke-width="2" stroke-linecap="round" stroke-linejoin="round"/>
<path d="M10.7588 27.3104V19.3104C10.7588 19.0451 10.8641 18.7908 11.0517 18.6033C11.2392 18.4157 11.4936 18.3104 11.7588 18.3104H21.7588C22.024 18.3104 22.2784 18.4157 22.4659 18.6033C22.6534 18.7908 22.7588 19.0451 22.7588 19.3104V27.3104" stroke="black" stroke-width="2" stroke-linecap="round" stroke-linejoin="round"/>
<path d="M19.7588 9.31036H12.7588" stroke="black" stroke-width="2" stroke-linecap="round" stroke-linejoin="round"/>
</svg>
