<svg width="33" height="33" viewBox="0 0 33 33" fill="none" xmlns="http://www.w3.org/2000/svg">
<path d="M22.7842 12.7729H28.7842V6.77289" stroke="black" stroke-width="2" stroke-linecap="round" stroke-linejoin="round"/>
<path d="M8.9834 8.53536C10.0039 7.51337 11.2159 6.70261 12.55 6.14943C13.8841 5.59626 15.3142 5.31152 16.7584 5.31152C18.2026 5.31152 19.6327 5.59626 20.9668 6.14943C22.3009 6.70261 23.5129 7.51337 24.5334 8.53536L28.7834 12.7729" stroke="black" stroke-width="2" stroke-linecap="round" stroke-linejoin="round"/>
<path d="M10.7334 19.8478H4.7334V25.8478" stroke="black" stroke-width="2" stroke-linecap="round" stroke-linejoin="round"/>
<path d="M24.5334 24.0853C23.5129 25.1073 22.3009 25.9181 20.9668 26.4713C19.6327 27.0244 18.2026 27.3092 16.7584 27.3092C15.3142 27.3092 13.8841 27.0244 12.55 26.4713C11.2159 25.9181 10.0039 25.1073 8.9834 24.0853L4.7334 19.8478" stroke="black" stroke-width="2" stroke-linecap="round" stroke-linejoin="round"/>
</svg>
